<svg enable-background="new 0 0 32 32" height="32px" version="1.1" viewBox="0 0 32 32" width="32px" xml:space="preserve" xmlns="http://www.w3.org/2000/svg" xmlns:xlink="http://www.w3.org/1999/xlink"><g id="decentralization"><g><g id="decentralization_1_"><g><g><path d="M22.93,14c-0.713,0-1.378-0.383-1.733-1c-0.552-0.955-0.224-2.18,0.731-2.731l1.733-1.001l-0.5-0.866       c-0.095-0.164-0.089-0.367,0.016-0.525c0.104-0.158,0.287-0.248,0.477-0.221l4.964,0.599c0.156,0.019,0.295,0.109,0.373,0.246       c0.079,0.137,0.089,0.302,0.027,0.446l-1.965,4.598c-0.074,0.175-0.241,0.292-0.43,0.303c-0.21,0.013-0.369-0.085-0.464-0.249       l-0.499-0.866l-1.732,1C23.624,13.907,23.279,14,22.93,14z M24.527,8.768L24.776,9.2c0.139,0.239,0.057,0.545-0.183,0.683       l-2.166,1.251c-0.231,0.134-0.396,0.35-0.466,0.607c-0.069,0.259-0.033,0.527,0.1,0.759c0.266,0.459,0.901,0.632,1.366,0.366       l2.166-1.25c0.115-0.066,0.249-0.084,0.38-0.051c0.128,0.035,0.237,0.119,0.304,0.233l0.249,0.433l1.31-3.064L24.527,8.768z" fill="#263238"></path></g><g><path d="M8.406,24.349c-0.02,0-0.04-0.001-0.06-0.004l-4.964-0.599C3.227,23.728,3.088,23.637,3.01,23.5       c-0.079-0.137-0.089-0.302-0.027-0.446l1.965-4.598c0.074-0.175,0.241-0.292,0.43-0.303c0.204-0.019,0.369,0.085,0.464,0.249       l0.499,0.866l1.732-1c0.922-0.534,2.201-0.188,2.731,0.731c0.268,0.462,0.338,1.001,0.2,1.518       c-0.139,0.516-0.469,0.947-0.932,1.214l-1.733,1.001l0.5,0.866c0.095,0.164,0.089,0.367-0.016,0.525       C8.73,24.266,8.573,24.349,8.406,24.349z M4.164,22.833l3.309,0.399L7.224,22.8c-0.139-0.239-0.057-0.545,0.183-0.683       l2.166-1.251c0.231-0.134,0.396-0.35,0.466-0.607c0.069-0.259,0.033-0.527-0.1-0.759c-0.266-0.458-0.9-0.632-1.366-0.366       l-2.166,1.25c-0.115,0.067-0.251,0.083-0.38,0.051c-0.128-0.035-0.237-0.119-0.304-0.233l-0.249-0.433L4.164,22.833z" fill="#263238"></path></g></g><g><g><path d="M23.594,24.348c-0.167,0-0.324-0.083-0.417-0.225c-0.104-0.158-0.11-0.361-0.016-0.525l0.5-0.866       l-1.733-1c-0.955-0.552-1.283-1.776-0.731-2.731c0.529-0.92,1.808-1.266,2.731-0.731l1.733,1l0.5-0.866       c0.094-0.164,0.259-0.261,0.463-0.249c0.188,0.012,0.355,0.129,0.43,0.303l1.964,4.598c0.062,0.145,0.052,0.31-0.027,0.446       c-0.078,0.137-0.217,0.228-0.373,0.246l-4.964,0.598C23.634,24.347,23.613,24.348,23.594,24.348z M22.93,19       c-0.357,0-0.689,0.191-0.868,0.5c-0.275,0.478-0.111,1.09,0.366,1.366l2.166,1.25c0.115,0.065,0.198,0.175,0.233,0.303       c0.034,0.129,0.016,0.265-0.051,0.38l-0.25,0.433l3.31-0.398l-1.31-3.064l-0.25,0.433c-0.137,0.239-0.442,0.322-0.683,0.183       l-2.166-1.25C23.275,19.047,23.104,19,22.93,19z" fill="#263238"></path></g><g><path d="M9.07,14c-0.35,0-0.694-0.093-0.998-0.269l-1.733-1l-0.5,0.866c-0.094,0.164-0.25,0.269-0.463,0.249       c-0.188-0.012-0.355-0.129-0.43-0.303L2.982,8.946C2.921,8.802,2.931,8.637,3.01,8.5c0.078-0.137,0.217-0.228,0.373-0.246       l4.964-0.598C8.536,7.632,8.72,7.719,8.823,7.877c0.104,0.158,0.11,0.361,0.016,0.525l-0.5,0.866l1.733,1       c0.463,0.267,0.793,0.698,0.932,1.214c0.138,0.517,0.067,1.056-0.2,1.518C10.448,13.617,9.783,14,9.07,14z M6.156,11.549       c0.085,0,0.171,0.021,0.25,0.067l2.166,1.25c0.467,0.267,1.102,0.093,1.366-0.366c0.133-0.231,0.169-0.5,0.1-0.759       c-0.069-0.258-0.234-0.474-0.466-0.607l-2.166-1.25C7.291,9.818,7.208,9.709,7.173,9.581c-0.034-0.129-0.016-0.265,0.051-0.38       l0.25-0.433l-3.31,0.398l1.31,3.064l0.25-0.433C5.815,11.639,5.984,11.549,6.156,11.549z" fill="#263238"></path></g></g><g><g><path d="M16,31c-0.157,0-0.306-0.074-0.4-0.2l-3-4c-0.113-0.151-0.132-0.354-0.047-0.523S12.811,26,13,26h1v-2       c0-1.103,0.897-2,2-2s2,0.897,2,2v2h1c0.189,0,0.362,0.107,0.447,0.276s0.066,0.372-0.047,0.523l-3,4       C16.306,30.926,16.157,31,16,31z M14,27l2,2.667L18,27h-0.5c-0.276,0-0.5-0.224-0.5-0.5V24c0-0.552-0.448-1-1-1s-1,0.448-1,1       v2.5c0,0.276-0.224,0.5-0.5,0.5H14z" fill="#263238"></path></g><g><path d="M16,10c-1.103,0-2-0.897-2-2V6h-1c-0.189,0-0.362-0.107-0.447-0.276S12.486,5.352,12.6,5.2l3-4       c0.189-0.252,0.611-0.252,0.801,0l3,4c0.113,0.151,0.132,0.354,0.047,0.523S19.189,6,19,6h-1v2C18,9.103,17.103,10,16,10z        M14,5h0.5C14.776,5,15,5.224,15,5.5V8c0,0.552,0.448,1,1,1s1-0.448,1-1V5.5C17,5.224,17.224,5,17.5,5H18l-2-2.667L14,5z" fill="#263238"></path></g></g></g><g><path d="M16,21c-2.757,0-5-2.243-5-5s2.243-5,5-5s5,2.243,5,5S18.757,21,16,21z M16,12c-2.206,0-4,1.794-4,4     s1.794,4,4,4s4-1.794,4-4S18.206,12,16,12z" fill="#263238"></path></g></g><g><g><g><circle cx="18.518" cy="1.721" fill="#263238" r="0.5"></circle></g><g><circle cx="13.482" cy="30.279" fill="#263238" r="0.499"></circle></g></g><g><g><circle cx="20.959" cy="2.375" fill="#263238" r="0.5"></circle></g><g><circle cx="11.041" cy="29.625" fill="#263238" r="0.5"></circle></g></g><g><g><circle cx="23.25" cy="3.442" fill="#263238" r="0.5"></circle></g><g><circle cx="8.75" cy="28.558" fill="#263238" r="0.5"></circle></g></g><g><g><circle cx="25.32" cy="4.893" fill="#263238" r="0.5"></circle></g><g><circle cx="6.68" cy="27.107" fill="#263238" r="0.5"></circle></g></g><g><g><circle cx="27.107" cy="6.68" fill="#263238" r="0.501"></circle></g><g><circle cx="4.893" cy="25.32" fill="#263238" r="0.501"></circle></g></g><g><g><circle cx="29.625" cy="11.041" fill="#263238" r="0.501"></circle></g><g><circle cx="2.375" cy="20.959" fill="#263238" r="0.501"></circle></g></g><g><g><circle cx="30.28" cy="13.482" fill="#263238" r="0.5"></circle></g><g><circle cx="1.72" cy="18.518" fill="#263238" r="0.5"></circle></g></g><g><g><circle cx="30.5" cy="16" fill="#263238" r="0.5"></circle></g><g><circle cx="1.5" cy="16" fill="#263238" r="0.5"></circle></g></g><g><g><circle cx="30.28" cy="18.518" fill="#263238" r="0.5"></circle></g><g><circle cx="1.72" cy="13.482" fill="#263238" r="0.5"></circle></g></g><g><g><circle cx="29.625" cy="20.959" fill="#263238" r="0.501"></circle></g><g><circle cx="2.375" cy="11.041" fill="#263238" r="0.501"></circle></g></g><g><g><circle cx="27.107" cy="25.32" fill="#263238" r="0.5"></circle></g><g><circle cx="4.893" cy="6.68" fill="#263238" r="0.5"></circle></g></g><g><g><circle cx="25.32" cy="27.108" fill="#263238" r="0.501"></circle></g><g><circle cx="6.68" cy="4.892" fill="#263238" r="0.501"></circle></g></g><g><g><circle cx="23.25" cy="28.557" fill="#263238" r="0.501"></circle></g><g><circle cx="8.75" cy="3.443" fill="#263238" r="0.501"></circle></g></g><g><g><circle cx="20.959" cy="29.626" fill="#263238" r="0.5"></circle></g><g><circle cx="11.041" cy="2.374" fill="#263238" r="0.5"></circle></g></g><g><g><circle cx="18.518" cy="30.28" fill="#263238" r="0.5"></circle></g><g><circle cx="13.482" cy="1.72" fill="#263238" r="0.5"></circle></g></g></g></g></svg>