<?xml version="1.0" encoding="UTF-8" standalone="no"?><!-- Generator: Gravit.io --><svg xmlns="http://www.w3.org/2000/svg" xmlns:xlink="http://www.w3.org/1999/xlink" style="isolation:isolate" viewBox="0 0 87 38" width="87pt" height="38pt"><path d=" M 1 12.5 C 1 6.153 6.377 1 13 1 C 19.623 1 25 6.153 25 12.5 C 25 18.847 19.623 24 13 24 C 6.377 24 1 18.847 1 12.5 Z " fill="rgb(255,255,255)" vector-effect="non-scaling-stroke" stroke-width="2" stroke="rgb(0,0,0)" stroke-linejoin="miter" stroke-linecap="square" stroke-miterlimit="3"/><path d=" M 14.113 9.733 L 14.113 17.964 L 11.994 17.964 L 11.994 9.733 L 9.28 9.733 L 9.28 7.97 L 16.827 7.97 L 16.827 9.733 L 14.113 9.733 L 14.113 9.733 Z " fill="rgb(0,0,0)"/><path d=" M 21 25.5 C 21 19.153 26.377 14 33 14 C 39.623 14 45 19.153 45 25.5 C 45 31.847 39.623 37 33 37 C 26.377 37 21 31.847 21 25.5 Z " fill="rgb(255,255,255)" vector-effect="non-scaling-stroke" stroke-width="2" stroke="rgb(0,0,0)" stroke-linejoin="miter" stroke-linecap="square" stroke-miterlimit="3"/><path d=" M 36.431 30.964 L 30.258 30.964 L 30.258 20.97 L 32.377 20.97 L 32.377 29.214 L 36.431 29.214 L 36.431 30.964 L 36.431 30.964 Z " fill="rgb(0,0,0)"/><path d=" M 42 12.5 C 42 6.153 47.377 1 54 1 C 60.623 1 66 6.153 66 12.5 C 66 18.847 60.623 24 54 24 C 47.377 24 42 18.847 42 12.5 Z " fill="rgb(255,255,255)" vector-effect="non-scaling-stroke" stroke-width="2" stroke="rgb(0,0,0)" stroke-linejoin="miter" stroke-linecap="square" stroke-miterlimit="3"/><path d=" M 54.377 17.846 L 52.258 17.846 L 52.258 7.852 L 54.377 7.852 L 54.377 17.846 L 54.377 17.846 Z " fill="rgb(0,0,0)"/><path d=" M 62 25.5 C 62 19.153 67.377 14 74 14 C 80.623 14 86 19.153 86 25.5 C 86 31.847 80.623 37 74 37 C 67.377 37 62 31.847 62 25.5 Z " fill="rgb(255,255,255)" vector-effect="non-scaling-stroke" stroke-width="2" stroke="rgb(0,0,0)" stroke-linejoin="miter" stroke-linecap="square" stroke-miterlimit="3"/><path d=" M 73.377 22.588 L 73.377 25.555 L 74.074 25.555 L 74.074 25.555 Q 75.052 25.555 75.537 25.168 L 75.537 25.168 L 75.537 25.168 Q 76.022 24.782 76.022 24.044 L 76.022 24.044 L 76.022 24.044 Q 76.022 23.299 75.616 22.943 L 75.616 22.943 L 75.616 22.943 Q 75.209 22.588 74.341 22.588 L 74.341 22.588 L 73.377 22.588 L 73.377 22.588 Z  M 78.162 23.969 L 78.162 23.969 L 78.162 23.969 Q 78.162 25.582 77.154 26.437 L 77.154 26.437 L 77.154 26.437 Q 76.146 27.291 74.286 27.291 L 74.286 27.291 L 73.377 27.291 L 73.377 30.846 L 71.258 30.846 L 71.258 20.852 L 74.45 20.852 L 74.45 20.852 Q 76.269 20.852 77.215 21.634 L 77.215 21.634 L 77.215 21.634 Q 78.162 22.417 78.162 23.969 Z " fill="rgb(0,0,0)"/></svg>